<mxfile host="app.diagrams.net" modified="2024-03-22T22:00:32.485Z" agent="Mozilla/5.0 (Windows NT 10.0; Win64; x64) AppleWebKit/537.36 (KHTML, like Gecko) Chrome/123.0.0.0 Safari/537.36" etag="hzileDy-P6Rle1c-8wvV" version="24.0.8" type="github">
  <diagram name="第 1 页" id="1K9Wr5PapQiu9WoFy6UW">
    <mxGraphModel dx="1434" dy="738" grid="1" gridSize="10" guides="1" tooltips="1" connect="1" arrows="1" fold="1" page="1" pageScale="1" pageWidth="827" pageHeight="1169" math="0" shadow="0">
      <root>
        <mxCell id="0" />
        <mxCell id="1" parent="0" />
        <mxCell id="DEerrhvPIGozO2zbTUHh-4" value="" style="rounded=0;whiteSpace=wrap;html=1;strokeColor=none;fillColor=#f5f5f5;fontColor=#333333;" vertex="1" parent="1">
          <mxGeometry x="400" y="155" width="500" height="285" as="geometry" />
        </mxCell>
        <mxCell id="DEerrhvPIGozO2zbTUHh-3" value="" style="rounded=0;whiteSpace=wrap;html=1;strokeColor=none;fillColor=#f5f5f5;fontColor=#333333;" vertex="1" parent="1">
          <mxGeometry x="140" y="155" width="250" height="285" as="geometry" />
        </mxCell>
        <mxCell id="mvngjl2Wi5XTwGVjHKzV-18" style="edgeStyle=orthogonalEdgeStyle;rounded=0;orthogonalLoop=1;jettySize=auto;html=1;entryX=0;entryY=0.5;entryDx=0;entryDy=0;" parent="1" source="mvngjl2Wi5XTwGVjHKzV-1" target="mvngjl2Wi5XTwGVjHKzV-4" edge="1">
          <mxGeometry relative="1" as="geometry" />
        </mxCell>
        <mxCell id="mvngjl2Wi5XTwGVjHKzV-1" value="&lt;font style=&quot;font-size: 14px;&quot;&gt;输入图像&lt;/font&gt;" style="rounded=1;whiteSpace=wrap;html=1;fillColor=#fff2cc;strokeColor=#d6b656;" parent="1" vertex="1">
          <mxGeometry x="50" y="185" width="80" height="40" as="geometry" />
        </mxCell>
        <mxCell id="mvngjl2Wi5XTwGVjHKzV-15" style="edgeStyle=orthogonalEdgeStyle;rounded=0;orthogonalLoop=1;jettySize=auto;html=1;exitX=1;exitY=0.5;exitDx=0;exitDy=0;entryX=1;entryY=0.5;entryDx=0;entryDy=0;" parent="1" source="mvngjl2Wi5XTwGVjHKzV-4" target="mvngjl2Wi5XTwGVjHKzV-11" edge="1">
          <mxGeometry relative="1" as="geometry" />
        </mxCell>
        <mxCell id="mvngjl2Wi5XTwGVjHKzV-4" value="&lt;font style=&quot;font-size: 14px;&quot;&gt;特征提取&lt;/font&gt;" style="rounded=1;whiteSpace=wrap;html=1;fillColor=#d5e8d4;strokeColor=#82b366;" parent="1" vertex="1">
          <mxGeometry x="170" y="190" width="190" height="30" as="geometry" />
        </mxCell>
        <mxCell id="mvngjl2Wi5XTwGVjHKzV-16" style="edgeStyle=orthogonalEdgeStyle;rounded=0;orthogonalLoop=1;jettySize=auto;html=1;exitX=0;exitY=0.5;exitDx=0;exitDy=0;entryX=0;entryY=0.5;entryDx=0;entryDy=0;" parent="1" source="mvngjl2Wi5XTwGVjHKzV-11" target="mvngjl2Wi5XTwGVjHKzV-12" edge="1">
          <mxGeometry relative="1" as="geometry" />
        </mxCell>
        <mxCell id="mvngjl2Wi5XTwGVjHKzV-11" value="&lt;font style=&quot;font-size: 14px;&quot;&gt;匹配&lt;/font&gt;" style="rounded=1;whiteSpace=wrap;html=1;fillColor=#d5e8d4;strokeColor=#82b366;" parent="1" vertex="1">
          <mxGeometry x="170" y="250" width="190" height="30" as="geometry" />
        </mxCell>
        <mxCell id="mvngjl2Wi5XTwGVjHKzV-20" style="edgeStyle=orthogonalEdgeStyle;rounded=0;orthogonalLoop=1;jettySize=auto;html=1;exitX=1;exitY=0.5;exitDx=0;exitDy=0;entryX=0;entryY=0.5;entryDx=0;entryDy=0;" parent="1" source="mvngjl2Wi5XTwGVjHKzV-12" target="mvngjl2Wi5XTwGVjHKzV-19" edge="1">
          <mxGeometry relative="1" as="geometry" />
        </mxCell>
        <mxCell id="mvngjl2Wi5XTwGVjHKzV-12" value="&lt;span style=&quot;font-size: 14px;&quot;&gt;几何验证&lt;/span&gt;" style="rounded=1;whiteSpace=wrap;html=1;fillColor=#d5e8d4;strokeColor=#82b366;" parent="1" vertex="1">
          <mxGeometry x="170" y="310" width="190" height="30" as="geometry" />
        </mxCell>
        <mxCell id="mvngjl2Wi5XTwGVjHKzV-23" style="edgeStyle=orthogonalEdgeStyle;rounded=0;orthogonalLoop=1;jettySize=auto;html=1;exitX=1;exitY=0.5;exitDx=0;exitDy=0;dashed=1;dashPattern=1 2;" parent="1" source="mvngjl2Wi5XTwGVjHKzV-19" edge="1">
          <mxGeometry relative="1" as="geometry">
            <mxPoint x="650" y="263" as="targetPoint" />
          </mxGeometry>
        </mxCell>
        <mxCell id="mvngjl2Wi5XTwGVjHKzV-19" value="&lt;font style=&quot;font-size: 14px;&quot;&gt;初始化&lt;/font&gt;" style="rounded=1;whiteSpace=wrap;html=1;fillColor=#dae8fc;strokeColor=#6c8ebf;" parent="1" vertex="1">
          <mxGeometry x="430" y="190" width="190" height="30" as="geometry" />
        </mxCell>
        <mxCell id="mvngjl2Wi5XTwGVjHKzV-28" style="edgeStyle=orthogonalEdgeStyle;rounded=0;orthogonalLoop=1;jettySize=auto;html=1;exitX=0;exitY=0.5;exitDx=0;exitDy=0;entryX=0;entryY=0.5;entryDx=0;entryDy=0;" parent="1" source="mvngjl2Wi5XTwGVjHKzV-21" target="mvngjl2Wi5XTwGVjHKzV-22" edge="1">
          <mxGeometry relative="1" as="geometry" />
        </mxCell>
        <mxCell id="mvngjl2Wi5XTwGVjHKzV-21" value="&lt;span style=&quot;font-size: 14px;&quot;&gt;图像配准&lt;/span&gt;" style="rounded=1;whiteSpace=wrap;html=1;fillColor=#dae8fc;strokeColor=#6c8ebf;" parent="1" vertex="1">
          <mxGeometry x="430" y="250" width="190" height="30" as="geometry" />
        </mxCell>
        <mxCell id="mvngjl2Wi5XTwGVjHKzV-29" style="edgeStyle=orthogonalEdgeStyle;rounded=0;orthogonalLoop=1;jettySize=auto;html=1;exitX=1;exitY=0.5;exitDx=0;exitDy=0;entryX=0;entryY=0.5;entryDx=0;entryDy=0;" parent="1" source="mvngjl2Wi5XTwGVjHKzV-22" target="mvngjl2Wi5XTwGVjHKzV-25" edge="1">
          <mxGeometry relative="1" as="geometry" />
        </mxCell>
        <mxCell id="mvngjl2Wi5XTwGVjHKzV-22" value="&lt;span style=&quot;font-size: 14px;&quot;&gt;三角测量&lt;/span&gt;" style="rounded=1;whiteSpace=wrap;html=1;fillColor=#dae8fc;strokeColor=#6c8ebf;" parent="1" vertex="1">
          <mxGeometry x="430" y="310" width="190" height="30" as="geometry" />
        </mxCell>
        <mxCell id="mvngjl2Wi5XTwGVjHKzV-26" style="edgeStyle=orthogonalEdgeStyle;rounded=0;orthogonalLoop=1;jettySize=auto;html=1;exitX=0;exitY=0.5;exitDx=0;exitDy=0;entryX=1;entryY=0.5;entryDx=0;entryDy=0;" parent="1" source="mvngjl2Wi5XTwGVjHKzV-24" target="mvngjl2Wi5XTwGVjHKzV-21" edge="1">
          <mxGeometry relative="1" as="geometry" />
        </mxCell>
        <mxCell id="mvngjl2Wi5XTwGVjHKzV-31" style="edgeStyle=orthogonalEdgeStyle;rounded=0;orthogonalLoop=1;jettySize=auto;html=1;exitX=0.5;exitY=0;exitDx=0;exitDy=0;entryX=0.5;entryY=0;entryDx=0;entryDy=0;dashed=1;dashPattern=1 1;" parent="1" source="mvngjl2Wi5XTwGVjHKzV-24" target="mvngjl2Wi5XTwGVjHKzV-32" edge="1">
          <mxGeometry relative="1" as="geometry">
            <mxPoint x="765" y="200" as="targetPoint" />
          </mxGeometry>
        </mxCell>
        <mxCell id="mvngjl2Wi5XTwGVjHKzV-24" value="&lt;span style=&quot;font-size: 14px;&quot;&gt;异常值过滤&lt;/span&gt;" style="rounded=1;whiteSpace=wrap;html=1;fillColor=#9bc2f8;strokeColor=#6c8ebf;" parent="1" vertex="1">
          <mxGeometry x="670" y="250" width="190" height="30" as="geometry" />
        </mxCell>
        <mxCell id="mvngjl2Wi5XTwGVjHKzV-30" style="edgeStyle=orthogonalEdgeStyle;rounded=0;orthogonalLoop=1;jettySize=auto;html=1;exitX=1;exitY=0.5;exitDx=0;exitDy=0;entryX=1;entryY=0.5;entryDx=0;entryDy=0;" parent="1" source="mvngjl2Wi5XTwGVjHKzV-25" target="mvngjl2Wi5XTwGVjHKzV-24" edge="1">
          <mxGeometry relative="1" as="geometry" />
        </mxCell>
        <mxCell id="mvngjl2Wi5XTwGVjHKzV-25" value="&lt;div style=&quot;text-align: start;&quot;&gt;&lt;span style=&quot;font-size: 14px; background-color: initial;&quot;&gt;捆集调整&lt;/span&gt;&lt;/div&gt;" style="rounded=1;whiteSpace=wrap;html=1;fillColor=#9bc2f8;strokeColor=#6c8ebf;" parent="1" vertex="1">
          <mxGeometry x="670" y="310" width="190" height="30" as="geometry" />
        </mxCell>
        <mxCell id="mvngjl2Wi5XTwGVjHKzV-32" value="&lt;font style=&quot;font-size: 17px;&quot;&gt;重建&lt;/font&gt;" style="rounded=1;whiteSpace=wrap;html=1;fillColor=#f8cecc;strokeColor=#b85450;" parent="1" vertex="1">
          <mxGeometry x="910" y="215" width="140" height="95" as="geometry" />
        </mxCell>
        <mxCell id="mvngjl2Wi5XTwGVjHKzV-34" value="&lt;font style=&quot;font-size: 17px;&quot;&gt;增量重建&lt;/font&gt;" style="text;html=1;align=center;verticalAlign=middle;resizable=0;points=[];autosize=1;strokeColor=none;fillColor=none;" parent="1" vertex="1">
          <mxGeometry x="600" y="400" width="90" height="30" as="geometry" />
        </mxCell>
        <mxCell id="mvngjl2Wi5XTwGVjHKzV-35" value="&lt;font style=&quot;font-size: 17px;&quot;&gt;对应搜索&lt;/font&gt;" style="text;html=1;align=center;verticalAlign=middle;resizable=0;points=[];autosize=1;strokeColor=none;fillColor=none;" parent="1" vertex="1">
          <mxGeometry x="210" y="400" width="90" height="30" as="geometry" />
        </mxCell>
      </root>
    </mxGraphModel>
  </diagram>
</mxfile>
